<svg width="500" height="174" viewBox="0 0 500 174" fill="none" xmlns="http://www.w3.org/2000/svg">
<g clip-path="url(#clip0_2_565)">
<path d="M174.757 47.5859C174.757 35.3232 178.75 24.6655 195.455 24.6655C210.195 24.6655 215.732 32.9393 215.732 42.257H207.808C207.387 35.9465 204.158 31.0383 195.455 31.0383C184.864 31.0383 182.602 38.4084 182.602 47.5859C182.602 56.7634 184.848 64.0555 195.455 64.0555C204.221 64.0555 207.387 59.4278 207.808 52.7745H215.732C215.732 62.6532 210.257 70.5063 195.455 70.5063C178.687 70.5063 174.757 59.8485 174.757 47.5859Z" fill="white"/>
<path d="M220.661 52.0733C220.661 42.6154 224.373 33.6404 238.489 33.6404C252.605 33.6404 256.317 42.6154 256.317 52.0733C256.317 61.5313 252.464 70.5062 238.426 70.5062C224.389 70.5062 220.676 61.6092 220.676 52.0733H220.661ZM225.496 26.0678L251.107 20.6766V26.4262L225.496 31.8953V26.0834V26.0678ZM238.411 64.4139C246.834 64.4139 248.659 59.0071 248.659 52.0733C248.659 45.1396 246.974 39.7328 238.473 39.7328C229.973 39.7328 228.304 45.3421 228.304 52.0733C228.304 58.8045 230.129 64.4139 238.411 64.4139Z" fill="white"/>
<path d="M260.794 52.0733C260.794 42.257 264.163 33.6404 276.095 33.6404C283.176 33.6404 286.764 36.1646 288.308 38.5486V20.4585H295.67V70.0232H291.599L289.915 64.9125C288.651 67.3588 284.643 70.5218 276.157 70.5218C264.287 70.5218 260.778 61.9053 260.778 52.0889L260.794 52.0733ZM278.279 64.336C286.623 64.336 288.386 59.4278 288.386 52.0733C288.386 45.1396 286.92 39.9509 278.357 39.9509C269.793 39.9509 268.468 44.8591 268.468 52.0733C268.468 59.2876 270.152 64.336 278.294 64.336H278.279Z" fill="white"/>
<path d="M306.635 19.5392C309.864 19.5392 311.97 20.4429 311.97 24.089C311.97 27.735 309.864 28.5765 306.635 28.5765C303.406 28.5765 301.098 27.6727 301.098 24.089C301.098 20.5052 303.266 19.5392 306.635 19.5392ZM302.845 34.1235H310.285V70.0232H302.845V34.1235Z" fill="white"/>
<path d="M314.98 72.4695H322.841C323.184 76.6142 324.463 79.1228 333.011 79.1228C341.559 79.1228 342.978 76.5986 342.978 74.7133C342.978 71.5658 340.17 70.927 333.573 70.0856C320.595 68.4807 315.542 67.6393 315.542 61.952C315.542 58.6643 317.647 57.1218 321.656 56.2024C317.585 54.0989 316.259 50.7333 316.259 46.6666C316.259 34.1235 329.174 34.1235 333.869 34.1235H349.654V37.6916L344.6 39.1563C346.784 40.3561 348.609 42.5998 348.609 47.7105C348.609 54.2392 345.661 59.2097 332.886 59.5525C325.446 59.755 323.138 59.8329 323.138 61.5157C323.138 63.1985 326.507 63.5569 333.947 64.5385C341.668 65.5825 350.792 66.3616 350.792 74.3549C350.792 79.4033 347.22 85.0749 332.403 85.0749C318.786 85.0749 314.996 80.2447 314.996 72.4539L314.98 72.4695ZM332.387 54.2392C339.188 54.2392 340.81 51.2943 340.81 46.947C340.81 43.0828 339.406 40.2937 332.387 40.2937C325.368 40.2937 323.886 43.0205 323.886 47.1652C323.886 51.3099 325.368 54.2392 332.387 54.2392Z" fill="white"/>
<path d="M353.319 52.0733C353.319 42.6154 357.031 33.6404 371.147 33.6404C385.263 33.6404 388.976 42.6154 388.976 52.0733C388.976 61.5313 385.123 70.5063 371.085 70.5063C357.047 70.5063 353.335 61.6092 353.335 52.0733H353.319ZM371.069 64.4139C379.492 64.4139 381.317 59.0071 381.317 52.0733C381.317 45.1396 379.632 39.7328 371.132 39.7328C362.631 39.7328 360.962 45.3421 360.962 52.0733C360.962 58.8045 362.787 64.4139 371.069 64.4139Z" fill="white"/>
<path d="M392.969 57.262H400.331C400.331 62.0922 403.637 64.5541 410.157 64.5541C415.289 64.5541 418.72 62.809 418.72 60.0043C418.72 56.701 414.571 55.7973 408.395 54.6131C400.674 53.1329 393.655 51.3099 393.655 44.5787C393.655 37.8474 398.849 33.6404 409.377 33.6404C419.906 33.6404 425.162 38.05 425.162 46.464H418.143C417.862 41.5558 415.133 39.4523 409.159 39.4523C403.185 39.4523 401.095 41.0572 401.095 43.9398C401.095 47.0873 405.088 47.7884 411.062 48.9882C419.344 50.6087 426.082 52.011 426.082 59.646C426.082 66.159 419.765 70.5063 410.298 70.5063C398.646 70.5063 392.969 66.159 392.969 57.262Z" fill="white"/>
<path d="M173.836 109.725C173.836 99.9085 177.206 91.292 189.138 91.292C196.219 91.292 199.807 93.8162 201.351 96.2001V78.11H208.713V127.675H204.642L202.957 122.564C201.694 125.01 197.685 128.173 189.2 128.173C177.33 128.173 173.821 119.557 173.821 109.74L173.836 109.725ZM191.321 121.987C199.666 121.987 201.429 117.079 201.429 109.725C201.429 102.791 199.963 97.6025 191.399 97.6025C182.836 97.6025 181.51 102.511 181.51 109.725C181.51 116.939 183.195 121.987 191.337 121.987H191.321Z" fill="white"/>
<path d="M214.765 109.647C214.765 100.033 218.415 91.2764 232.733 91.2764C245.991 91.2764 249.719 101.373 248.799 112.654H222.548C222.969 118.824 226.058 122.393 232.515 122.393C238.489 122.393 240.376 119.526 241.078 116.643H248.939C248.3 122.751 244.088 128.142 232.796 128.142C218.337 128.142 214.765 119.245 214.765 109.631V109.647ZM241.078 106.702V106.562C241.14 101.654 238.832 97.1038 232.031 97.1038C225.231 97.1038 222.985 101.451 222.626 106.702H241.078Z" fill="white"/>
<path d="M263.258 105.237C263.258 92.9748 267.251 82.317 283.956 82.317C298.696 82.317 304.233 90.5908 304.233 99.9085H296.31C295.888 93.598 292.66 88.6898 283.956 88.6898C273.365 88.6898 271.104 96.0599 271.104 105.237C271.104 114.415 273.35 121.707 283.956 121.707C292.722 121.707 295.888 117.079 296.31 110.426H304.233C304.233 120.305 298.758 128.158 283.956 128.158C267.189 128.158 263.258 117.5 263.258 105.237Z" fill="white"/>
<path d="M309.084 117.157C309.084 110.566 313.795 107.621 324.027 106.577L335.335 105.456C335.117 99.5657 333.229 97.2597 325.992 97.2597C319.332 97.2597 317.507 99.9241 317.507 104.412L310.207 104.474C310.207 97.0415 313.295 91.292 325.93 91.292C340.591 91.292 342.697 97.6025 342.697 107.279V127.675H338.626L337.082 122.284C335.397 125.088 330.406 128.173 322.982 128.173C315.557 128.173 309.084 124.73 309.084 117.173V117.157ZM324.869 122.268C332.091 122.268 335.335 118.482 335.335 112.249V111.127L325.15 112.249C318.911 112.95 316.805 114.275 316.805 117.079C316.805 120.383 319.613 122.268 324.869 122.268Z" fill="white"/>
<path d="M349.092 91.775H353.101L354.848 96.7455C357.031 92.1178 361.243 90.8557 367.622 91.2764V97.7894C360.245 96.7455 356.595 100.314 356.595 108.728V127.659H349.092V91.7594V91.775Z" fill="white"/>
<path d="M371.631 91.775H375.639L377.386 96.7455C379.57 92.1178 383.781 90.8557 390.161 91.2764V97.7894C382.783 96.7455 379.133 100.314 379.133 108.728V127.659H371.631V91.7594V91.775Z" fill="white"/>
<path d="M392.126 109.647C392.126 100.033 395.776 91.2764 410.095 91.2764C423.353 91.2764 427.081 101.373 426.16 112.654H399.91C400.331 118.824 403.419 122.393 409.876 122.393C415.85 122.393 417.738 119.526 418.44 116.643H426.301C425.661 122.751 421.45 128.142 410.157 128.142C395.698 128.142 392.126 119.245 392.126 109.631V109.647ZM418.44 106.702V106.562C418.502 101.654 416.193 97.1038 409.393 97.1038C402.592 97.1038 400.346 101.451 399.987 106.702H418.44Z" fill="white"/>
<path d="M435.987 77.1907C439.216 77.1907 441.321 78.0944 441.321 81.7405C441.321 85.3866 439.216 86.228 435.987 86.228C432.758 86.228 430.45 85.3242 430.45 81.7405C430.45 78.1568 432.618 77.1907 435.987 77.1907ZM432.197 91.775H439.637V127.675H432.197V91.775Z" fill="white"/>
<path d="M446.796 91.775H450.805L452.552 96.7455C454.735 92.1178 458.947 90.8557 465.326 91.2764V97.7894C457.949 96.7455 454.299 100.314 454.299 108.728V127.659H446.796V91.7594V91.775Z" fill="white"/>
<path d="M466.387 117.157C466.387 110.566 471.097 107.621 481.33 106.577L492.638 105.456C492.42 99.5657 490.532 97.2597 483.295 97.2597C476.635 97.2597 474.81 99.9241 474.81 104.412L467.51 104.474C467.51 97.0415 470.598 91.292 483.232 91.292C497.91 91.292 500 97.6025 500 107.279V127.675H495.929L494.385 122.284C492.7 125.088 487.709 128.173 480.285 128.173C472.86 128.173 466.387 124.73 466.387 117.173V117.157ZM482.172 122.268C489.394 122.268 492.638 118.482 492.638 112.249V111.127L482.453 112.249C476.213 112.95 474.108 114.275 474.108 117.079C474.108 120.383 476.915 122.268 482.172 122.268Z" fill="white"/>
<path d="M206.56 150.689H214.843C223.624 150.689 224.42 155.16 224.42 158.355C224.42 161.549 223.952 165.881 215.124 165.881H210.491V173.625H206.545V150.689H206.56ZM215.092 162.733C219.865 162.733 220.364 160.302 220.364 158.355C220.364 156.407 219.818 153.914 214.983 153.914H210.491V162.733H215.077H215.092Z" fill="#6ED0AA"/>
<path d="M227.508 162.125C227.508 155.862 229.661 150.439 238.442 150.439C247.224 150.439 249.376 155.846 249.376 162.188C249.376 168.529 247.302 173.874 238.442 173.874C229.583 173.874 227.508 168.389 227.508 162.125ZM238.442 170.617C244.213 170.617 245.399 166.862 245.399 162.203C245.399 157.544 244.213 153.711 238.442 153.711C232.671 153.711 231.517 157.435 231.517 162.125C231.517 166.815 232.733 170.617 238.442 170.617Z" fill="#6ED0AA"/>
<path d="M253.416 150.689H262.166C269.06 150.689 272.632 154.662 272.632 162.016C272.632 169.371 268.764 173.625 261.807 173.625H253.416V150.689ZM261.09 170.399C266.144 170.399 268.795 168.171 268.795 161.985C268.764 155.753 266.315 153.93 261.293 153.93H257.315V170.415H261.074L261.09 170.399Z" fill="#6ED0AA"/>
<path d="M275.83 162.157C275.83 155.893 277.873 150.439 286.405 150.439C293.939 150.439 296.778 154.662 296.778 159.43H292.722C292.504 156.204 290.85 153.696 286.405 153.696C280.993 153.696 279.838 157.451 279.838 162.157C279.838 166.862 280.993 170.571 286.405 170.571C290.882 170.571 292.504 168.202 292.722 164.805H296.778C296.778 169.854 293.985 173.874 286.405 173.874C277.826 173.874 275.83 168.42 275.83 162.157Z" fill="#6ED0AA"/>
<path d="M306.932 150.689H312.282L320.892 173.625H316.696L315.152 169.153H303.89L302.237 173.625H298.119L306.947 150.689H306.932ZM314.138 166.27L309.505 153.228L304.842 166.27H314.138Z" fill="#6ED0AA"/>
<path d="M322.373 165.429H326.32C326.507 168.825 328.472 170.477 332.746 170.477C336.255 170.477 338.127 169.402 338.127 167.221C338.127 164.852 335.975 164.463 331.997 163.528C325.93 162.094 323.06 160.91 323.06 156.859C323.06 152.527 326.398 150.439 332.06 150.439C338.408 150.439 341.605 153.119 341.668 158.495H337.753C337.534 155.129 335.85 153.727 331.904 153.727C328.503 153.727 326.912 154.693 326.912 156.703C326.912 158.931 328.878 159.352 333.339 160.427C339.11 161.829 341.98 162.905 341.98 166.956C341.98 171.334 338.642 173.874 332.403 173.874C326.164 173.874 322.389 171.116 322.358 165.413L322.373 165.429Z" fill="#6ED0AA"/>
<path d="M349.623 153.914H343.025V150.689H360.057V153.914H353.46V173.625H349.623V153.914Z" fill="#6ED0AA"/>
<path d="M182.306 169.963C176.41 169.963 171.59 165.148 171.59 159.258C171.59 158.62 172.074 158.137 172.713 158.137C173.353 158.137 173.836 158.62 173.836 159.258C173.836 163.917 177.642 167.735 182.322 167.735C187.001 167.735 190.807 163.933 190.807 159.258C190.807 158.62 191.29 158.137 191.93 158.137C192.569 158.137 193.053 158.62 193.053 159.258C193.053 165.195 188.264 169.963 182.337 169.963H182.306Z" fill="#6ED0AA"/>
<path d="M182.306 173.609C181.666 173.609 181.183 173.126 181.183 172.487V168.825C181.183 168.187 181.666 167.704 182.306 167.704C182.945 167.704 183.429 168.187 183.429 168.825V172.487C183.429 173.126 182.945 173.609 182.306 173.609Z" fill="#6ED0AA"/>
<path d="M182.493 165.101H182.15C178.906 165.101 176.285 162.484 176.285 159.243V153.353C176.285 150.112 178.906 147.494 182.15 147.494H182.493C185.737 147.494 188.358 150.112 188.358 153.353V159.243C188.358 162.484 185.737 165.101 182.493 165.101Z" fill="#6ED0AA"/>
<path d="M69.8777 112.498C58.9749 112.498 50.0998 102.152 50.0998 89.4534C50.0998 76.7544 58.9749 66.4083 69.8777 66.4083C76.1012 66.4083 81.8411 69.7116 85.6158 75.4612C86.7232 77.144 86.2553 79.4189 84.5551 80.5252C82.855 81.6314 80.5933 81.164 79.4859 79.4656C77.0994 75.8195 73.5899 73.716 69.8777 73.716C63.0147 73.716 57.4151 80.7745 57.4151 89.4534C57.4151 98.1322 62.9991 105.191 69.8777 105.191C73.5899 105.191 77.0994 103.087 79.4859 99.4411C80.5933 97.7583 82.855 97.2753 84.5551 98.3815C86.2553 99.4878 86.7232 101.747 85.6158 103.446C81.8411 109.211 76.1168 112.514 69.8777 112.514V112.498Z" fill="#6ED0AA"/>
<path d="M134.437 63.7283C133.173 63.7283 131.941 63.0739 131.255 61.9053C131.021 61.4846 106.719 20.2559 70.8603 21.705C34.0965 23.1541 18.4988 51.0294 17.8593 52.2136C16.8923 53.9899 14.6774 54.6443 12.8993 53.6782C11.1211 52.7122 10.466 50.4996 11.4175 48.7389C12.135 47.3989 29.5264 16.0178 70.564 14.3973C87.3627 13.7273 104.333 21.1597 119.588 35.8686C130.927 46.8068 137.322 57.8073 137.587 58.2592C138.601 60.0043 137.993 62.2481 136.246 63.2453C135.669 63.5725 135.045 63.7283 134.421 63.7283H134.437Z" fill="white"/>
<path d="M8.70354 123.109C7.31534 123.109 5.98954 122.33 5.38123 120.99C-6.37944 95.5769 4.77292 63.0116 5.24085 61.6404C5.91155 59.7394 7.98604 58.7266 9.90456 59.3966C11.8075 60.0667 12.8213 62.139 12.1506 64.0555C12.0414 64.3671 1.513 95.2341 12.0103 117.936C12.8525 119.775 12.057 121.941 10.2165 122.782C9.71739 123.016 9.20267 123.125 8.68794 123.125L8.70354 123.109Z" fill="white"/>
<path d="M130.132 131.134C129.539 131.134 128.931 130.994 128.369 130.682C127.745 130.339 112.818 121.925 97.9536 97.6492C96.8929 95.9197 97.4388 93.6759 99.1702 92.6164C100.886 91.5569 103.148 92.1022 104.208 93.8318C118.075 116.472 131.785 124.2 131.925 124.278C133.688 125.26 134.343 127.472 133.36 129.248C132.69 130.448 131.442 131.134 130.147 131.134H130.132Z" fill="white"/>
<path d="M23.1626 147.479C22.2579 147.479 21.3377 147.136 20.6358 146.466C15.3013 141.355 11.5423 134.079 11.3863 133.783C10.4661 131.991 11.1836 129.778 12.9773 128.859C14.771 127.94 16.9859 128.641 17.9062 130.448C17.9374 130.511 21.2753 136.946 25.705 141.2C27.1712 142.602 27.218 144.908 25.8142 146.373C25.0967 147.12 24.1296 147.494 23.1782 147.494L23.1626 147.479Z" fill="white"/>
<path d="M141.222 96.0599C140.613 96.0599 139.989 95.9041 139.412 95.5769C138.554 95.0783 130.444 89.9364 112.553 64.1023C95.9103 40.06 76.6315 38.2214 76.4443 38.2058C74.4322 38.0344 72.9348 36.2737 73.0908 34.2637C73.2468 32.2537 75.0405 30.7267 77.037 30.9137C77.9729 30.9916 99.9812 33.0795 118.574 59.942C135.435 84.3115 143.062 89.2352 143.14 89.282C144.84 90.3415 145.386 92.5697 144.357 94.2836C143.67 95.4211 142.469 96.0599 141.222 96.0599Z" fill="white"/>
<path d="M36.2802 136.182C35.4067 136.182 34.5177 135.871 33.8158 135.232C22.5386 124.964 15.2545 106.998 15.2545 89.4533C15.2545 59.8485 35.0948 34.7 61.4081 30.9293C63.4202 30.6488 65.2608 32.0355 65.5571 34.03C65.8379 36.0244 64.4497 37.8786 62.4532 38.1747C39.7273 41.4312 22.5854 63.479 22.5854 89.4689C22.5854 104.817 29.0897 121.037 38.7603 129.841C40.2576 131.196 40.3668 133.518 38.9942 134.998C38.2767 135.793 37.2785 136.198 36.2802 136.198V136.182Z" fill="white"/>
<path d="M44.0635 172.472C42.878 172.472 41.7082 171.895 41.0063 170.835C39.8989 169.153 40.3512 166.878 42.0514 165.771C50.6457 160.115 60.4099 157.124 70.2988 157.124C80.1878 157.124 89.8271 160.084 98.3747 165.662C100.059 166.769 100.543 169.028 99.4353 170.726C98.3279 172.425 96.0662 172.892 94.3661 171.786C87.004 166.987 78.6904 164.447 70.2988 164.447C61.9072 164.447 53.4689 167.018 46.0756 171.895C45.4517 172.3 44.7498 172.503 44.0635 172.503V172.472Z" fill="white"/>
<path d="M112.647 162.702C111.82 162.702 110.978 162.421 110.291 161.845C98.4839 151.966 84.6487 146.746 70.2832 146.746C56.7288 146.746 43.5644 151.437 32.1936 160.302C30.6027 161.549 28.2942 161.268 27.062 159.664C25.8142 158.074 26.0949 155.768 27.7015 154.537C40.3668 144.659 55.0911 139.439 70.2988 139.439C86.4112 139.439 101.869 145.251 115.017 156.251C116.562 157.544 116.764 159.851 115.47 161.409C114.752 162.266 113.707 162.718 112.662 162.718L112.647 162.702Z" fill="white"/>
<path d="M136.698 114.244C136.074 114.244 135.45 114.088 134.873 113.76C131.301 111.704 128.338 109.086 125.561 105.533C124.314 103.944 124.594 101.638 126.185 100.407C127.776 99.1606 130.085 99.4411 131.317 101.03C133.501 103.819 135.794 105.861 138.523 107.419C140.27 108.432 140.878 110.66 139.865 112.405C139.194 113.574 137.962 114.244 136.683 114.244H136.698Z" fill="white"/>
<path d="M69.6125 132.941C48.852 132.941 31.9597 113.496 31.9597 89.578C31.9597 65.6604 48.852 46.2147 69.6125 46.2147C77.9729 46.2147 90.7786 48.661 105.596 69.7428C106.719 71.3321 107.842 72.9837 108.997 74.6977C112.849 80.3538 116.842 86.2124 121.88 91.8685C123.222 93.3799 123.081 95.686 121.584 97.026C120.071 98.366 117.763 98.2413 116.421 96.7299C111.056 90.7155 106.751 84.3894 102.96 78.8112C101.822 77.1284 100.714 75.5079 99.6069 73.9498C85.257 53.538 73.8863 53.538 69.6125 53.538C52.8918 53.538 39.2906 69.7116 39.2906 89.578C39.2906 109.444 52.8918 125.618 69.6125 125.618C78.0197 125.618 85.8497 121.598 91.6521 114.321C92.9155 112.748 95.2083 112.483 96.7993 113.729C98.3747 114.991 98.6398 117.282 97.392 118.871C90.2795 127.815 80.1566 132.941 69.6281 132.941H69.6125Z" fill="white"/>
<path d="M123.206 147.479C122.738 147.479 122.255 147.385 121.802 147.198C121.257 146.965 108.295 141.464 101.073 129.342C100.044 127.612 100.605 125.369 102.352 124.325C104.099 123.296 106.329 123.857 107.375 125.602C113.333 135.59 124.532 140.405 124.641 140.452C126.497 141.231 127.371 143.381 126.591 145.235C125.998 146.637 124.641 147.479 123.222 147.479H123.206Z" fill="white"/>
<path d="M141.736 74.6198C144.036 74.6198 145.901 72.7572 145.901 70.4595C145.901 68.1619 144.036 66.2993 141.736 66.2993C139.436 66.2993 137.572 68.1619 137.572 70.4595C137.572 72.7572 139.436 74.6198 141.736 74.6198Z" fill="white"/>
<path d="M125.655 30.6644C124.719 30.6644 123.783 30.306 123.066 29.5893C108.7 15.2231 90.2639 7.30772 71.1567 7.30772C54.6231 7.30772 38.7759 13.104 25.3619 24.0578C23.8021 25.3355 21.4936 25.1018 20.2146 23.5436C18.9356 21.9855 19.1696 19.6794 20.7293 18.4017C35.4692 6.35725 52.9074 0 71.1567 0C92.2136 0 112.491 8.67889 128.244 24.4162C129.679 25.8497 129.679 28.1558 128.244 29.5893C127.527 30.306 126.591 30.6644 125.655 30.6644Z" fill="white"/>
</g>
<defs>
<clipPath id="clip0_2_565">
<rect width="500" height="173.874" fill="white"/>
</clipPath>
</defs>
</svg>
